<svg width="45" height="57" viewBox="0 0 45 57" fill="none" xmlns="http://www.w3.org/2000/svg">
<g filter="url(#filter0_ii_756_6259)">
<path d="M2.64 57V48.6L24.24 28.2C25.9467 26.6533 27.2 25.2667 28 24.04C28.8 22.8133 29.3333 21.6933 29.6 20.68C29.92 19.6667 30.08 18.7333 30.08 17.88C30.08 15.64 29.3067 13.9333 27.76 12.76C26.2667 11.5333 24.0533 10.92 21.12 10.92C18.7733 10.92 16.5867 11.3733 14.56 12.28C12.5867 13.1867 10.9067 14.6 9.52 16.52L0.08 10.44C2.21333 7.24 5.2 4.70666 9.04 2.84C12.88 0.973331 17.3067 0.039999 22.32 0.039999C26.48 0.039999 30.1067 0.733331 33.2 2.12C36.3467 3.45333 38.7733 5.34667 40.48 7.8C42.24 10.2533 43.12 13.1867 43.12 16.6C43.12 18.4133 42.88 20.2267 42.4 22.04C41.9733 23.8 41.0667 25.6667 39.68 27.64C38.3467 29.6133 36.3733 31.8267 33.76 34.28L15.84 51.16L13.36 46.44H44.96V57H2.64Z" fill="#182605" fill-opacity="0.36"/>
</g>
<defs>
<filter id="filter0_ii_756_6259" x="-1.91992" y="-1.95999" width="48.8799" height="60.96" filterUnits="userSpaceOnUse" color-interpolation-filters="sRGB">
<feFlood flood-opacity="0" result="BackgroundImageFix"/>
<feBlend mode="normal" in="SourceGraphic" in2="BackgroundImageFix" result="shape"/>
<feColorMatrix in="SourceAlpha" type="matrix" values="0 0 0 0 0 0 0 0 0 0 0 0 0 0 0 0 0 0 127 0" result="hardAlpha"/>
<feOffset dx="2" dy="2"/>
<feGaussianBlur stdDeviation="2"/>
<feComposite in2="hardAlpha" operator="arithmetic" k2="-1" k3="1"/>
<feColorMatrix type="matrix" values="0 0 0 0 0 0 0 0 0 0 0 0 0 0 0 0 0 0 0.15 0"/>
<feBlend mode="normal" in2="shape" result="effect1_innerShadow_756_6259"/>
<feColorMatrix in="SourceAlpha" type="matrix" values="0 0 0 0 0 0 0 0 0 0 0 0 0 0 0 0 0 0 127 0" result="hardAlpha"/>
<feOffset dx="-2" dy="-2"/>
<feGaussianBlur stdDeviation="2"/>
<feComposite in2="hardAlpha" operator="arithmetic" k2="-1" k3="1"/>
<feColorMatrix type="matrix" values="0 0 0 0 0 0 0 0 0 0 0 0 0 0 0 0 0 0 0.15 0"/>
<feBlend mode="normal" in2="effect1_innerShadow_756_6259" result="effect2_innerShadow_756_6259"/>
</filter>
</defs>
</svg>
