<svg width="46" height="57" viewBox="0 0 46 57" fill="none" xmlns="http://www.w3.org/2000/svg">
<g filter="url(#filter0_ii_756_6262)">
<path d="M22.16 56.96C18.2667 56.96 14.4 56.4533 10.56 55.44C6.77333 54.3733 3.52 52.88 0.8 50.96L5.92 41.04C8.05333 42.5867 10.5067 43.8133 13.28 44.72C16.1067 45.6267 18.96 46.08 21.84 46.08C25.0933 46.08 27.6533 45.44 29.52 44.16C31.3867 42.88 32.32 41.0933 32.32 38.8C32.32 37.36 31.9467 36.08 31.2 34.96C30.4533 33.84 29.12 32.9867 27.2 32.4C25.3333 31.8133 22.6933 31.52 19.28 31.52H4.96L7.84 -3.8147e-06H42V10.4H12.48L19.2 4.48L17.2 26.96L10.48 21.04H22.32C27.8667 21.04 32.32 21.8133 35.68 23.36C39.0933 24.8533 41.5733 26.9067 43.12 29.52C44.6667 32.1333 45.44 35.0933 45.44 38.4C45.44 41.7067 44.6133 44.7733 42.96 47.6C41.3067 50.3733 38.7467 52.64 35.28 54.4C31.8667 56.1067 27.4933 56.96 22.16 56.96Z" fill="#182605" fill-opacity="0.36"/>
</g>
<defs>
<filter id="filter0_ii_756_6262" x="-1.2002" y="-2" width="48.6406" height="60.96" filterUnits="userSpaceOnUse" color-interpolation-filters="sRGB">
<feFlood flood-opacity="0" result="BackgroundImageFix"/>
<feBlend mode="normal" in="SourceGraphic" in2="BackgroundImageFix" result="shape"/>
<feColorMatrix in="SourceAlpha" type="matrix" values="0 0 0 0 0 0 0 0 0 0 0 0 0 0 0 0 0 0 127 0" result="hardAlpha"/>
<feOffset dx="2" dy="2"/>
<feGaussianBlur stdDeviation="2"/>
<feComposite in2="hardAlpha" operator="arithmetic" k2="-1" k3="1"/>
<feColorMatrix type="matrix" values="0 0 0 0 0 0 0 0 0 0 0 0 0 0 0 0 0 0 0.15 0"/>
<feBlend mode="normal" in2="shape" result="effect1_innerShadow_756_6262"/>
<feColorMatrix in="SourceAlpha" type="matrix" values="0 0 0 0 0 0 0 0 0 0 0 0 0 0 0 0 0 0 127 0" result="hardAlpha"/>
<feOffset dx="-2" dy="-2"/>
<feGaussianBlur stdDeviation="2"/>
<feComposite in2="hardAlpha" operator="arithmetic" k2="-1" k3="1"/>
<feColorMatrix type="matrix" values="0 0 0 0 0 0 0 0 0 0 0 0 0 0 0 0 0 0 0.15 0"/>
<feBlend mode="normal" in2="effect1_innerShadow_756_6262" result="effect2_innerShadow_756_6262"/>
</filter>
</defs>
</svg>
