<svg width="24" height="24" viewBox="0 0 24 24" fill="none" xmlns="http://www.w3.org/2000/svg">
<path d="M13.4992 5.49983L6.45218 12.5468C6.22718 12.7718 6.11518 12.8838 6.04418 13.0228C5.97218 13.1618 5.94618 13.3188 5.89418 13.6328L5.11418 18.3098C5.06218 18.6238 5.03518 18.7818 5.12618 18.8728C5.21718 18.9638 5.37518 18.9368 5.68918 18.8848L10.3672 18.1048C10.6802 18.0528 10.8372 18.0268 10.9772 17.9548C11.1152 17.8838 11.2272 17.7718 11.4522 17.5468L18.4992 10.4998C19.5162 9.48283 20.0252 8.97383 20.1372 8.36283C20.1822 8.12283 20.1822 7.87683 20.1372 7.63683C20.0252 7.02583 19.5172 6.51683 18.4992 5.49983C17.4812 4.48283 16.9732 3.97383 16.3622 3.86183C16.1222 3.81754 15.8762 3.81754 15.6362 3.86183C15.0252 3.97383 14.5162 4.48183 13.4992 5.49983Z" fill="#182605" fill-opacity="0.25"/>
<path d="M12.2922 6.70703L6.45218 12.547C6.22718 12.772 6.11518 12.884 6.04418 13.023C5.97218 13.162 5.94618 13.319 5.89418 13.633L5.11418 18.31C5.06218 18.624 5.03518 18.782 5.12618 18.873C5.21718 18.964 5.37518 18.937 5.68918 18.885L10.3672 18.105C10.6802 18.053 10.8372 18.027 10.9772 17.955C11.1152 17.884 11.2272 17.772 11.4522 17.547L17.2922 11.707C17.6252 11.374 17.7922 11.207 17.7922 11C17.7922 10.793 17.6252 10.626 17.2922 10.293L13.7062 6.70703C13.3732 6.37403 13.2062 6.20703 12.9992 6.20703C12.7922 6.20703 12.6252 6.37403 12.2922 6.70703Z" fill="#182605"/>
</svg>
