<svg width="24" height="24" viewBox="0 0 24 24" fill="none" xmlns="http://www.w3.org/2000/svg">
<path opacity="0.3" fill-rule="evenodd" clip-rule="evenodd" d="M12 21C13.1819 21 14.3522 20.7672 15.4442 20.3149C16.5361 19.8626 17.5282 19.1997 18.364 18.364C19.1997 17.5282 19.8626 16.5361 20.3149 15.4442C20.7672 14.3522 21 13.1819 21 12C21 10.8181 20.7672 9.64778 20.3149 8.55585C19.8626 7.46392 19.1997 6.47177 18.364 5.63604C17.5282 4.80031 16.5361 4.13738 15.4442 3.68508C14.3522 3.23279 13.1819 3 12 3C9.61305 3 7.32387 3.94821 5.63604 5.63604C3.94821 7.32387 3 9.61305 3 12C3 14.3869 3.94821 16.6761 5.63604 18.364C7.32387 20.0518 9.61305 21 12 21ZM10.588 9.914C10.788 10.115 11 10.411 11 10.772C10.9987 10.8552 10.9769 10.9368 10.9365 11.0095C10.8961 11.0822 10.8383 11.1438 10.7684 11.1888C10.6984 11.2339 10.6184 11.2609 10.5355 11.2676C10.4525 11.2742 10.3692 11.2603 10.293 11.227C9.759 10.985 9.195 10.798 8.699 10.759C8.206 10.72 7.853 10.829 7.62 11.086C7.54488 11.1683 7.44439 11.2232 7.33451 11.2419C7.22463 11.2606 7.11165 11.2421 7.01352 11.1892C6.91539 11.1363 6.83774 11.0522 6.79289 10.9502C6.74805 10.8481 6.73858 10.734 6.766 10.626C6.925 10.008 7.063 9.265 7.778 9.069C8.436 8.889 9.216 9.084 9.794 9.367C10.0861 9.50542 10.3539 9.69014 10.587 9.914M17.233 10.625C17.2608 10.7333 17.2516 10.8477 17.2068 10.9501C17.1619 11.0525 17.0841 11.1369 16.9857 11.1898C16.8872 11.2428 16.7739 11.2613 16.6637 11.2422C16.5536 11.2232 16.453 11.1679 16.378 11.085C16.146 10.829 15.793 10.72 15.3 10.759C14.804 10.799 14.24 10.985 13.706 11.227C13.6298 11.2603 13.5465 11.2742 13.4635 11.2676C13.3806 11.2609 13.3006 11.2339 13.2306 11.1888C13.1607 11.1438 13.1029 11.0822 13.0625 11.0095C13.0221 10.9368 13.0003 10.8552 12.999 10.772C12.999 10.412 13.211 10.115 13.411 9.914C13.626 9.7 13.907 9.513 14.205 9.367C14.783 9.084 15.563 8.89 16.221 9.069C16.936 9.265 17.074 10.008 17.233 10.625ZM16.154 17.375C17.179 16.587 18.021 15.315 17.438 13.955C17.244 13.5 16.786 13.298 16.314 13.305C16.015 13.308 15.644 13.381 15.29 13.45C14.2 13.664 13.112 13.821 11.999 13.821C10.886 13.821 9.797 13.664 8.709 13.451C8.354 13.381 7.983 13.308 7.684 13.304C7.213 13.298 6.754 13.5 6.56 13.954C5.977 15.314 6.82 16.587 7.844 17.375C8.91 18.196 10.446 18.75 11.999 18.75C13.552 18.75 15.089 18.196 16.154 17.375Z" fill="#182605"/>
<path d="M10.9994 10.772C10.9994 10.412 10.7874 10.115 10.5874 9.91395C10.3539 9.69 10.0858 9.50529 9.79337 9.36695C9.21536 9.08395 8.43537 8.88995 7.77737 9.06895C7.20937 9.22495 6.98637 9.75895 6.90137 10.095L6.76537 10.625C6.73795 10.733 6.74741 10.8471 6.79226 10.9491C6.8371 11.0512 6.91476 11.1353 7.01289 11.1882C7.11102 11.241 7.224 11.2596 7.33388 11.2409C7.44376 11.2222 7.54424 11.1673 7.61937 11.085C7.85237 10.829 8.20537 10.72 8.69837 10.759C9.19437 10.799 9.75837 10.985 10.2924 11.227C10.3685 11.2616 10.4521 11.2766 10.5356 11.2705C10.619 11.2644 10.6996 11.2375 10.77 11.1923C10.8403 11.147 10.8982 11.0848 10.9382 11.0114C10.9783 10.9379 10.9993 10.8556 10.9994 10.772ZM17.2334 10.625L17.0974 10.097V10.095C17.0124 9.75795 16.7894 9.22495 16.2214 9.06895C15.5624 8.88895 14.7834 9.08395 14.2054 9.36695C13.9133 9.50538 13.6455 9.69009 13.4124 9.91395C13.2114 10.115 12.9994 10.411 12.9994 10.772C12.9994 10.8556 13.0204 10.9379 13.0605 11.0114C13.1006 11.0848 13.1584 11.147 13.2288 11.1923C13.2991 11.2375 13.3797 11.2644 13.4631 11.2705C13.5466 11.2766 13.6302 11.2616 13.7064 11.227C14.2404 10.985 14.8044 10.798 15.3004 10.759C15.7934 10.72 16.1464 10.829 16.3794 11.086C16.4545 11.1683 16.555 11.2232 16.6649 11.2419C16.7747 11.2606 16.8877 11.242 16.9858 11.1892C17.084 11.1363 17.1616 11.0522 17.2065 10.9501C17.2513 10.8481 17.2608 10.734 17.2334 10.626" fill="#182605"/>
<path fill-rule="evenodd" clip-rule="evenodd" d="M17.4394 13.9548C18.0214 15.3148 17.1794 16.5868 16.1544 17.3748C15.0884 18.1948 13.5524 18.7498 11.9994 18.7498C10.4464 18.7498 8.9104 18.1958 7.8444 17.3748C6.8194 16.5868 5.9774 15.3148 6.5604 13.9548C6.7544 13.4998 7.2134 13.2978 7.6844 13.3048C7.9834 13.3078 8.3544 13.3808 8.7084 13.4498L8.77341 13.4628C9.54641 13.6148 10.5994 13.8208 11.9994 13.8208C13.1124 13.8208 14.2014 13.6638 15.2894 13.4508C15.6444 13.3808 16.0154 13.3078 16.3144 13.3038C16.7854 13.2978 17.2444 13.4998 17.4384 13.9538M15.5014 14.9358C14.7154 15.0908 13.5454 15.3198 11.9984 15.3198C10.4524 15.3198 9.28141 15.0898 8.49541 14.9358L8.44741 14.9258C8.25814 14.8876 8.06809 14.8532 7.8774 14.8228C7.8644 15.1948 8.09541 15.6758 8.75741 16.1858C9.55941 16.8028 10.7734 17.2488 11.9984 17.2488C13.2234 17.2488 14.4374 16.8028 15.2384 16.1858C15.9014 15.6758 16.1324 15.1958 16.1204 14.8228C15.9764 14.8438 15.7754 14.8828 15.5014 14.9358Z" fill="#182605"/>
<path fill-rule="evenodd" clip-rule="evenodd" d="M12 2.25C6.615 2.25 2.25 6.615 2.25 12C2.25 17.385 6.615 21.75 12 21.75C17.385 21.75 21.75 17.385 21.75 12C21.75 6.615 17.385 2.25 12 2.25ZM3.75 12C3.75 9.81196 4.61919 7.71354 6.16637 6.16637C7.71354 4.61919 9.81196 3.75 12 3.75C14.188 3.75 16.2865 4.61919 17.8336 6.16637C19.3808 7.71354 20.25 9.81196 20.25 12C20.25 14.188 19.3808 16.2865 17.8336 17.8336C16.2865 19.3808 14.188 20.25 12 20.25C9.81196 20.25 7.71354 19.3808 6.16637 17.8336C4.61919 16.2865 3.75 14.188 3.75 12Z" fill="#182605"/>
</svg>
