<svg width="24" height="24" viewBox="0 0 24 24" fill="none" xmlns="http://www.w3.org/2000/svg">
<path d="M16.5279 2H7.47185C6.26885 2 5.66785 2 5.18385 2.299C4.70085 2.597 4.43185 3.135 3.89385 4.211L2.49085 7.76C2.16585 8.58 1.88285 9.546 2.42885 10.239C2.68618 10.5656 3.03892 10.8039 3.43798 10.9207C3.83705 11.0375 4.2626 11.0271 4.65544 10.8908C5.04828 10.7545 5.38886 10.4991 5.62982 10.1602C5.87078 9.82137 6.00012 9.41581 5.99985 9C5.99985 9.53043 6.21057 10.0391 6.58564 10.4142C6.96071 10.7893 7.46942 11 7.99985 11C8.53029 11 9.03899 10.7893 9.41407 10.4142C9.78914 10.0391 9.99985 9.53043 9.99985 9C9.99985 9.53043 10.2106 10.0391 10.5856 10.4142C10.9607 10.7893 11.4694 11 11.9999 11C12.5303 11 13.039 10.7893 13.4141 10.4142C13.7891 10.0391 13.9999 9.53043 13.9999 9C13.9999 9.53043 14.2106 10.0391 14.5856 10.4142C14.9607 10.7893 15.4694 11 15.9999 11C16.5303 11 17.039 10.7893 17.4141 10.4142C17.7891 10.0391 17.9999 9.53043 17.9999 9C17.9998 9.41573 18.1293 9.82114 18.3703 10.1599C18.6114 10.4986 18.952 10.7538 19.3447 10.8899C19.7375 11.0261 20.163 11.0365 20.562 10.9197C20.9609 10.8028 21.3136 10.5646 21.5709 10.238C22.1169 9.545 21.8329 8.579 21.5089 7.759L20.1049 4.211C19.5669 3.135 19.2989 2.597 18.8149 2.299C18.3319 2 17.7299 2 16.5279 2ZM9.49985 21.25V18.5C9.49985 17.565 9.49985 17.098 9.70085 16.75C9.8325 16.522 10.0218 16.3326 10.2499 16.201C10.5979 16 11.0649 16 11.9999 16C12.9349 16 13.4019 16 13.7499 16.201C13.9779 16.3326 14.1672 16.522 14.2989 16.75C14.4999 17.098 14.4999 17.565 14.4999 18.5V21.25H9.49985Z" fill="#182605"/>
<path opacity="0.3" fill-rule="evenodd" clip-rule="evenodd" d="M4 11C4.53043 11 5.03914 10.7893 5.41421 10.4142C5.78929 10.0391 6 9.53043 6 9C6 9.53043 6.21071 10.0391 6.58579 10.4142C6.96086 10.7893 7.46957 11 8 11C8.53043 11 9.03914 10.7893 9.41421 10.4142C9.78929 10.0391 10 9.53043 10 9C10 9.53043 10.2107 10.0391 10.5858 10.4142C10.9609 10.7893 11.4696 11 12 11C12.5304 11 13.0391 10.7893 13.4142 10.4142C13.7893 10.0391 14 9.53043 14 9C14 9.53043 14.2107 10.0391 14.5858 10.4142C14.9609 10.7893 15.4696 11 16 11C16.5304 11 17.0391 10.7893 17.4142 10.4142C17.7893 10.0391 18 9.53043 18 9C18 9.53043 18.2107 10.0391 18.5858 10.4142C18.9609 10.7893 19.4696 11 20 11V21.25H14.5V18.5C14.5 17.565 14.5 17.098 14.299 16.75C14.1674 16.522 13.978 16.3326 13.75 16.201C13.402 16 12.935 16 12 16C11.065 16 10.598 16 10.25 16.201C10.022 16.3326 9.83265 16.522 9.701 16.75C9.5 17.098 9.5 17.565 9.5 18.5V21.25H4V11Z" fill="#182605"/>
<path d="M14.5 21.25H2C1.80109 21.25 1.61032 21.329 1.46967 21.4697C1.32902 21.6103 1.25 21.8011 1.25 22C1.25 22.1989 1.32902 22.3897 1.46967 22.5303C1.61032 22.671 1.80109 22.75 2 22.75H22C22.1989 22.75 22.3897 22.671 22.5303 22.5303C22.671 22.3897 22.75 22.1989 22.75 22C22.75 21.8011 22.671 21.6103 22.5303 21.4697C22.3897 21.329 22.1989 21.25 22 21.25H14.5Z" fill="#182605"/>
</svg>
