<svg width="24" height="24" viewBox="0 0 24 24" fill="none" xmlns="http://www.w3.org/2000/svg">
<path fill-rule="evenodd" clip-rule="evenodd" d="M14.7511 1.914C14.1908 2.68512 13.851 3.59423 13.7682 4.5438C13.6854 5.49337 13.8627 6.44758 14.281 7.30406C14.6993 8.16054 15.3429 8.88697 16.1427 9.40543C16.9426 9.92389 17.8685 10.2148 18.8211 10.247V10.258C18.8361 10.456 18.8511 10.659 18.8711 10.855C19.1081 13.102 19.6481 14.645 20.1671 15.658C20.5121 16.333 20.8511 16.781 21.0911 17.052C21.1965 17.1715 21.3101 17.2834 21.4311 17.387L21.4411 17.393C21.5694 17.4861 21.6649 17.6175 21.7139 17.7683C21.7629 17.9191 21.7628 18.0815 21.7137 18.2323C21.6646 18.383 21.569 18.5143 21.4406 18.6074C21.3122 18.7004 21.1577 18.7503 20.9991 18.75H2.99911C2.84092 18.7498 2.68683 18.6996 2.55889 18.6066C2.43094 18.5135 2.3357 18.3824 2.28677 18.232C2.23784 18.0815 2.23774 17.9195 2.28648 17.769C2.33521 17.6184 2.43029 17.4872 2.55811 17.394L2.56611 17.387L2.63011 17.333C2.69011 17.279 2.78711 17.188 2.90711 17.052C3.14711 16.782 3.48611 16.334 3.83111 15.659C4.52111 14.31 5.24911 12.03 5.24911 8.4C5.24911 6.519 5.94911 4.706 7.20911 3.362C8.47111 2.016 10.1931 1.25 11.9991 1.25C12.3818 1.25 12.7594 1.28367 13.1321 1.351C13.3701 1.394 14.1501 1.637 14.7511 1.914Z" fill="#182605"/>
<path fill-rule="evenodd" clip-rule="evenodd" d="M10.171 20.2565C10.0734 20.2695 9.97926 20.3016 9.89404 20.351C9.80867 20.4004 9.73388 20.4661 9.67394 20.5444C9.61401 20.6227 9.57011 20.7121 9.54475 20.8074C9.51939 20.9027 9.51308 21.002 9.52617 21.0998C9.53926 21.1975 9.5715 21.2917 9.62104 21.377C9.86274 21.7938 10.2097 22.1399 10.6273 22.3804C11.0448 22.6209 11.5182 22.7476 12 22.7476C12.4819 22.7476 12.9553 22.6209 13.3728 22.3804C13.7903 22.1399 14.1373 21.7938 14.379 21.377C14.4285 21.2918 14.4607 21.1976 14.4737 21.1C14.4868 21.0023 14.4805 20.903 14.4552 20.8078C14.4299 20.7126 14.3861 20.6233 14.3262 20.545C14.2664 20.4667 14.1918 20.4009 14.1065 20.3515C14.0213 20.3021 13.9272 20.2699 13.8295 20.2568C13.7319 20.2438 13.6326 20.2501 13.5373 20.2754C13.4421 20.3007 13.3528 20.3445 13.2745 20.4043C13.1962 20.4641 13.1305 20.5388 13.081 20.624C12.9711 20.8133 12.8134 20.9704 12.6237 21.0796C12.434 21.1889 12.2189 21.2464 12 21.2464C11.7811 21.2464 11.5661 21.1889 11.3764 21.0796C11.1867 20.9704 11.0289 20.8133 10.919 20.624C10.8697 20.5388 10.804 20.4641 10.7258 20.4042C10.6475 20.3444 10.5583 20.3005 10.4631 20.2752C10.3679 20.2498 10.2687 20.2435 10.171 20.2565Z" fill="#182605"/>
<path d="M15.25 5C15.25 4.00544 15.6451 3.05161 16.3484 2.34835C17.0516 1.64509 18.0055 1.25 19 1.25C19.9946 1.25 20.9484 1.64509 21.6517 2.34835C22.3549 3.05161 22.75 4.00544 22.75 5C22.75 5.99456 22.3549 6.94839 21.6517 7.65165C20.9484 8.35491 19.9946 8.75 19 8.75C18.0055 8.75 17.0516 8.35491 16.3484 7.65165C15.6451 6.94839 15.25 5.99456 15.25 5Z" fill="#FF3B3B"/>
</svg>
