<svg width="24" height="24" viewBox="0 0 24 24" fill="none" xmlns="http://www.w3.org/2000/svg">
<path opacity="0.3" d="M18.9991 17.47C18.1191 17.4 17.2491 17.25 16.3991 17.02L15.2091 18.21C16.4091 18.62 17.6891 18.88 19.0091 18.96V17.47H18.9991ZM6.53906 5H5.03906C5.12906 6.32 5.38906 7.59 5.78906 8.8L6.98906 7.6C6.74906 6.76 6.59906 5.89 6.53906 5Z" fill="#182605"/>
<path d="M20 21C20.55 21 21 20.55 21 20V16.51C21 15.96 20.55 15.51 20 15.51C18.76 15.51 17.55 15.31 16.43 14.94C16.331 14.903 16.2256 14.886 16.12 14.89C15.86 14.89 15.61 14.99 15.41 15.18L13.21 17.38C10.3755 15.9303 8.06967 13.6245 6.62 10.79L8.82 8.59C9.1 8.31 9.18 7.92 9.07 7.57C8.69132 6.41789 8.4989 5.21274 8.5 4C8.5 3.45 8.05 3 7.5 3H4C3.45 3 3 3.45 3 4C3 13.39 10.61 21 20 21ZM16.4 17.02C17.25 17.26 18.12 17.41 19 17.47V18.96C17.68 18.87 16.41 18.61 15.2 18.21L16.4 17.02ZM5.03 5H6.53C6.59537 5.87667 6.74949 6.74444 6.99 7.59L5.79 8.79C5.38 7.59 5.12 6.32 5.03 5Z" fill="#182605"/>
</svg>
