<svg width="24" height="24" viewBox="0 0 24 24" fill="none" xmlns="http://www.w3.org/2000/svg">
<path d="M7.69211 11.8969L9.10211 12.3669C10.0341 12.6769 10.4991 12.8329 10.8331 13.1669C11.1671 13.5009 11.3231 13.9669 11.6331 14.8969L12.1031 16.3069C12.8871 18.6609 13.2791 19.8369 14.0001 19.8369C14.7201 19.8369 15.1131 18.6609 15.8971 16.3069L18.7351 7.7949C19.2871 6.1389 19.5631 5.3109 19.1261 4.8739C18.6891 4.4369 17.8611 4.7129 16.2061 5.2639L7.69111 8.1039C5.34011 8.8869 4.16211 9.2789 4.16211 9.9999C4.16211 10.7209 5.33911 11.1129 7.69211 11.8969Z" fill="#182605" fill-opacity="0.25"/>
<path d="M7.69211 11.8969L9.10211 12.3669C10.0341 12.6769 10.4991 12.8329 10.8331 13.1669C11.1671 13.5009 11.3231 13.9669 11.6331 14.8969L12.1031 16.3069C12.8871 18.6609 13.2791 19.8369 14.0001 19.8369C14.7201 19.8369 15.1131 18.6609 15.8971 16.3069L18.7351 7.7949C19.2871 6.1389 19.5631 5.3109 19.1261 4.8739C18.6891 4.4369 17.8611 4.7129 16.2061 5.2639L7.69111 8.1039C5.34011 8.8869 4.16211 9.2789 4.16211 9.9999C4.16211 10.7209 5.33911 11.1129 7.69211 11.8969Z" fill="#182605" fill-opacity="0.3"/>
<path d="M9.52687 13.8418L7.46487 13.1548C7.32058 13.1067 7.16723 13.0922 7.01647 13.1123C6.86571 13.1324 6.72152 13.1866 6.59487 13.2708L5.50487 13.9968C5.37584 14.0828 5.27457 14.2044 5.21338 14.3469C5.15219 14.4893 5.13371 14.6465 5.1602 14.7993C5.18668 14.952 5.25699 15.0938 5.36256 15.2074C5.46814 15.3209 5.60443 15.4013 5.75487 15.4388L7.70987 15.9268C7.79785 15.9488 7.8782 15.9943 7.94232 16.0584C8.00643 16.1225 8.05191 16.2029 8.07387 16.2908L8.56187 18.2458C8.59939 18.3963 8.67981 18.5326 8.79335 18.6381C8.9069 18.7437 9.04868 18.814 9.20144 18.8405C9.35421 18.867 9.51138 18.8485 9.65384 18.7873C9.7963 18.7261 9.91791 18.6249 10.0039 18.4958L10.7299 17.4058C10.8141 17.2792 10.8683 17.135 10.8884 16.9842C10.9085 16.8335 10.894 16.6801 10.8459 16.5358L10.1589 14.4738C10.1098 14.3267 10.0271 14.193 9.91741 14.0833C9.80772 13.9736 9.67402 13.8909 9.52687 13.8418Z" fill="#182605"/>
</svg>
