<svg width="24" height="24" viewBox="0 0 24 24" fill="none" xmlns="http://www.w3.org/2000/svg">
<path opacity="0.3" fill-rule="evenodd" clip-rule="evenodd" d="M9.96408 2.80904C9.76492 2.66329 9.53308 2.56857 9.28884 2.53318C9.0446 2.49779 8.79541 2.52281 8.56308 2.60604C7.47677 3.0042 6.4678 3.58786 5.58108 4.33104C5.39323 4.49052 5.24727 4.69356 5.15593 4.92243C5.06459 5.15129 5.03065 5.39904 5.05708 5.64404C5.13208 6.39704 4.99908 7.12404 4.63708 7.75004C4.27608 8.37704 3.71208 8.85604 3.02208 9.16704C2.56408 9.37004 2.23608 9.78704 2.14708 10.28C1.94837 11.4181 1.94837 12.582 2.14708 13.72C2.24008 14.257 2.60708 14.646 3.02208 14.834C3.71208 15.144 4.27608 15.624 4.63808 16.25C4.99908 16.877 5.13208 17.603 5.05708 18.356C5.01208 18.808 5.16408 19.32 5.58108 19.669C6.4678 20.4122 7.47677 20.9959 8.56308 21.394C9.03408 21.563 9.55908 21.487 9.96308 21.191C10.5781 20.749 11.2751 20.5 11.9991 20.5C12.7231 20.5 13.4191 20.749 14.0341 21.191C14.4041 21.457 14.9241 21.581 15.4351 21.394C16.5214 20.9959 17.5303 20.4122 18.4171 19.669C18.8341 19.32 18.9871 18.809 18.9411 18.356C18.8661 17.603 18.9981 16.876 19.3611 16.25C19.7221 15.623 20.2861 15.145 20.9761 14.834C21.3901 14.646 21.7581 14.257 21.8511 13.72C22.0478 12.5818 22.0478 11.4183 21.8511 10.28C21.8073 10.0371 21.7046 9.80867 21.5521 9.61463C21.3996 9.4206 21.2018 9.26692 20.9761 9.16704C20.2861 8.85604 19.7221 8.37704 19.3601 7.75004C18.9981 7.12404 18.8661 6.39704 18.9411 5.64404C18.9675 5.39904 18.9336 5.15129 18.8422 4.92243C18.7509 4.69356 18.6049 4.49052 18.4171 4.33104C17.5303 3.58786 16.5214 3.0042 15.4351 2.60604C15.2029 2.52298 14.9539 2.49806 14.7098 2.53345C14.4658 2.56883 14.2341 2.66345 14.0351 2.80904C13.4191 3.25004 12.7221 3.50004 11.9991 3.50004C11.2761 3.50004 10.5791 3.25104 9.96408 2.80904Z" fill="#182605"/>
<path fill-rule="evenodd" clip-rule="evenodd" d="M9 12.0001C9 9.69109 11.5 8.24709 13.5 9.40209C13.956 9.66539 14.3348 10.0441 14.5981 10.5001C14.8614 10.9562 15 11.4735 15 12.0001C15 14.3091 12.5 15.7531 10.5 14.5981C10.044 14.3348 9.66525 13.9561 9.40194 13.5C9.13864 13.044 9.00001 12.5267 9 12.0001Z" fill="#182605"/>
</svg>
