<svg width="24" height="24" viewBox="0 0 24 24" fill="none" xmlns="http://www.w3.org/2000/svg">
<path opacity="0.3" d="M2 12C2 9.34784 3.05357 6.8043 4.92893 4.92893C6.8043 3.05357 9.34784 2 12 2C14.6522 2 17.1957 3.05357 19.0711 4.92893C20.9464 6.8043 22 9.34784 22 12V20.3337C22 20.7212 22 20.915 21.9575 21.0738C21.9007 21.2857 21.7891 21.4789 21.634 21.634C21.4789 21.7891 21.2857 21.9007 21.0738 21.9575C20.915 22 20.7212 22 20.3337 22H12C9.34784 22 6.8043 20.9464 4.92893 19.0711C3.05357 17.1957 2 14.6522 2 12Z" fill="#182605"/>
<path d="M7.625 10.125H16.375M7.625 13.875H13.875" stroke="#182605" stroke-width="1.4" stroke-linecap="round" stroke-linejoin="round"/>
</svg>
