<svg width="24" height="24" viewBox="0 0 24 24" fill="none" xmlns="http://www.w3.org/2000/svg">
<path opacity="0.3" fill-rule="evenodd" clip-rule="evenodd" d="M14 22H10C6.229 22 4.343 22 3.172 20.828C2.001 19.656 2 17.771 2 14V10C2 6.229 2 4.343 3.172 3.172C4.344 2.001 6.239 2 10.03 2C10.636 2 11.121 2 11.53 2.017C11.5167 2.097 11.51 2.17833 11.51 2.261L11.5 5.095C11.5 6.192 11.5 7.162 11.605 7.943C11.719 8.79 11.98 9.637 12.672 10.329C13.362 11.019 14.21 11.281 15.057 11.395C15.838 11.5 16.808 11.5 17.905 11.5H21.957C22 12.034 22 12.69 22 13.563V14C22 17.771 22 19.657 20.828 20.828C19.656 21.999 17.771 22 14 22Z" fill="#182605"/>
<path d="M11.51 2.25988L11.5 5.09488C11.5 6.19188 11.5 7.16088 11.605 7.94288C11.719 8.78988 11.98 9.63688 12.672 10.3279C13.362 11.0189 14.21 11.2809 15.057 11.3949C15.838 11.4999 16.808 11.4999 17.905 11.4999H21.957C21.9703 11.6545 21.9797 11.8212 21.985 11.9999H22C22 11.7319 22 11.5979 21.99 11.4399C21.914 10.4894 21.5831 9.57701 21.032 8.79888C20.938 8.67088 20.874 8.59488 20.747 8.44188C19.954 7.49388 18.91 6.31188 18 5.49988C17.19 4.77588 16.079 3.98488 15.11 3.33888C14.278 2.78288 13.862 2.50488 13.291 2.29888C13.1247 2.24014 12.9558 2.18875 12.785 2.14488C12.401 2.04988 12.027 2.01688 11.5 2.00488L11.51 2.25988Z" fill="#182605"/>
</svg>
