<svg width="24" height="24" viewBox="0 0 24 24" fill="none" xmlns="http://www.w3.org/2000/svg">
<path opacity="0.3" d="M19 2H5C4.20516 2.00264 3.44363 2.31955 2.88159 2.88159C2.31955 3.44363 2.00264 4.20516 2 5V13.86L5.88 9.98C6.4517 9.43586 7.21074 9.13238 8 9.13238C8.78926 9.13238 9.5483 9.43586 10.12 9.98L12.991 12.867L13.879 11.979C14.4429 11.419 15.2053 11.1048 16 11.1048C16.7947 11.1048 17.5571 11.419 18.121 11.979L22 15.86V5C21.9974 4.20516 21.6804 3.44363 21.1184 2.88159C20.5564 2.31955 19.7948 2.00264 19 2Z" fill="#182605"/>
<path d="M10.12 9.97994C9.5483 9.4358 8.78926 9.13232 8 9.13232C7.21074 9.13232 6.4517 9.4358 5.88 9.97994L2 13.8599V18.9999C2.00264 19.7948 2.31955 20.5563 2.88159 21.1184C3.44363 21.6804 4.20516 21.9973 5 21.9999H19C19.4034 21.9997 19.8026 21.9181 20.1737 21.76C20.5449 21.6019 20.8803 21.3706 21.16 21.0799L10.12 9.97994Z" fill="#182605"/>
<path opacity="0.25" d="M21.9992 15.8582L18.1202 11.9792C17.5564 11.4192 16.7939 11.105 15.9992 11.105C15.2045 11.105 14.4421 11.4192 13.8782 11.9792L12.9902 12.8672L21.1552 21.0762C21.6972 20.5212 22.0002 19.7762 21.9992 19.0002V15.8582Z" fill="#182605"/>
</svg>
