<svg width="24" height="24" viewBox="0 0 24 24" fill="none" xmlns="http://www.w3.org/2000/svg">
<path opacity="0.3" d="M15 2H14C11.172 2 9.757 2 8.879 2.879C8 3.757 8 5.172 8 8V16C8 18.828 8 20.243 8.879 21.121C9.757 22 11.172 22 14 22H15C17.828 22 19.243 22 20.121 21.121C21 20.243 21 18.828 21 16V8C21 5.172 21 3.757 20.121 2.879C19.243 2 17.828 2 15 2Z" fill="#182605"/>
<path opacity="0.2" d="M8 8C8 6.462 8 5.343 8.141 4.5H8C5.643 4.5 4.464 4.5 3.732 5.232C3 5.964 3 7.143 3 9.5V14.5C3 16.857 3 18.035 3.732 18.768C4.464 19.501 5.643 19.5 8 19.5H8.141C8 18.657 8 17.538 8 16V8Z" fill="#182605"/>
<path fill-rule="evenodd" clip-rule="evenodd" d="M4.46934 11.4702C4.32889 11.6108 4.25 11.8014 4.25 12.0002C4.25 12.1989 4.32889 12.3895 4.46934 12.5302L6.46934 14.5302C6.61151 14.6626 6.79956 14.7348 6.99386 14.7313C7.18816 14.7279 7.37355 14.6492 7.51096 14.5118C7.64838 14.3744 7.72709 14.189 7.73052 13.9947C7.73394 13.8004 7.66182 13.6123 7.52934 13.4702L6.80934 12.7502H13.9993C14.1983 12.7502 14.389 12.6711 14.5297 12.5305C14.6703 12.3898 14.7493 12.1991 14.7493 12.0002C14.7493 11.8012 14.6703 11.6105 14.5297 11.4698C14.389 11.3292 14.1983 11.2502 13.9993 11.2502H6.80934L7.52934 10.5302C7.60303 10.4615 7.66213 10.3787 7.70312 10.2867C7.74411 10.1947 7.76615 10.0954 7.76793 9.99468C7.76971 9.89397 7.75118 9.79394 7.71346 9.70056C7.67574 9.60717 7.6196 9.52233 7.54838 9.45112C7.47716 9.3799 7.39233 9.32375 7.29894 9.28603C7.20555 9.24831 7.10552 9.22979 7.00482 9.23156C6.90411 9.23334 6.8048 9.25538 6.7128 9.29637C6.6208 9.33736 6.538 9.39647 6.46934 9.47015L4.46934 11.4702Z" fill="#182605"/>
</svg>
