<svg width="248" height="51" viewBox="0 0 248 51" fill="none" xmlns="http://www.w3.org/2000/svg">
<path d="M235.621 29.7375L240.142 15.9954H247.841L239.56 40.6145C236.963 48.3136 233.114 50.9993 227.832 50.9993C225.907 50.9992 224.34 50.6866 222.863 50.1047L224.878 43.7034C225.46 43.9272 226.758 44.1506 227.475 44.1506C229.578 44.1504 231.503 42.6739 232.398 39.675L223.132 15.9954H230.921L235.621 29.7375ZM22.6807 47.8254C22.7008 47.8285 22.7145 47.8427 22.7207 47.8674L22.7598 48.8635L22.751 48.9026L22.7227 48.9407L22.4805 49.1125L22.4521 49.1223L22.417 49.1125L22.1748 48.9407L22.1514 48.9094L22.1396 48.8635L22.1797 47.8655L22.1885 47.842C22.2009 47.8265 22.2202 47.8226 22.2451 47.8303L22.4102 47.9124L22.4424 47.9211L22.4893 47.9124L22.6553 47.8303L22.6807 47.8254ZM21.6318 47.5667L22.0605 47.7815L22.084 47.8049L22.0908 47.8333L22.0508 48.8352L22.042 48.8606L22.0186 48.8792L21.5498 49.0959L21.5146 49.1008C21.49 49.0915 21.4771 49.073 21.4756 49.0452L21.5547 47.6135L21.5684 47.5813C21.575 47.5713 21.5859 47.5644 21.5977 47.5618C21.6093 47.5593 21.6217 47.5605 21.6318 47.5667ZM23.2988 47.5627C23.3218 47.5691 23.337 47.5859 23.3447 47.6135L23.4238 49.0452L23.415 49.0774C23.3995 49.0976 23.3771 49.1037 23.3477 49.0959L22.8789 48.8792L22.8604 48.8635L22.8486 48.8352L22.8066 47.8333L22.8135 47.8069L22.8369 47.7834L23.2686 47.5667L23.2988 47.5627ZM21.6201 4.18286C22.4044 3.86958 23.2591 3.77488 24.0928 3.90942C24.9266 4.04408 25.7086 4.40324 26.3545 4.94751L26.6484 5.21606L37.6621 16.2288C38.2602 16.8262 38.6843 17.5757 38.8896 18.3958C39.0949 19.2158 39.0741 20.0763 38.8281 20.885L38.6943 21.2581L33.1807 35.0432C32.8713 35.8148 32.3619 36.49 31.7041 36.9983C31.0462 37.5065 30.2642 37.8293 29.4395 37.9338L17.5986 39.4143C17.294 39.4501 16.9751 39.4939 16.6426 39.5452L15.6074 39.7131L15.0664 39.8108L13.3809 40.137L12.2266 40.384L10.4902 40.7737L8.26367 41.3049L4.64551 42.2288L3.13965 42.634C2.75967 42.7385 2.35919 42.7458 1.97559 42.6555C1.59203 42.5652 1.23681 42.3804 0.943359 42.1174C0.649853 41.8543 0.426508 41.5212 0.294922 41.1497C0.163411 40.7782 0.127955 40.3796 0.19043 39.9905L0.269531 39.6497L0.957031 37.0579L1.57227 34.6145L2.10449 32.3879L2.49316 30.6506L2.73828 29.4944L3.06738 27.8118L3.25391 26.7463L3.40234 25.7483L4.94141 13.4387C5.03831 12.6791 5.32057 11.9548 5.76367 11.3303C6.20685 10.7058 6.7974 10.2 7.48242 9.85767L7.83496 9.69653L21.6201 4.18286ZM144.937 15.4583C148.517 15.4583 152.636 16.3992 155.321 19.5325L151.023 23.8743C149.681 22.4419 146.861 21.8596 145.115 21.8596C143.325 21.8596 142.475 22.397 142.475 23.0237C142.476 25.2166 155.947 23.6505 155.947 33.05C155.947 38.7348 151.381 41.2864 145.786 41.2864C141.937 41.2863 137.327 39.9878 134.462 37.0784L139.341 32.3342C140.907 33.7664 143.682 34.5275 145.786 34.5276C147.621 34.5276 148.606 34.1691 148.606 33.3186C148.606 30.9464 135.223 32.6919 135.223 23.0237C135.223 18.458 139.117 15.4583 144.937 15.4583ZM119.935 15.6379C126.917 15.6379 132.647 21.367 132.647 28.3049C132.647 35.3326 126.917 41.0627 119.935 41.0627C112.907 41.0626 107.268 35.3325 107.268 28.3049C107.268 21.3671 112.907 15.638 119.935 15.6379ZM61.9873 15.5481C65.0757 15.5483 67.761 17.2497 69.1934 19.5325L69.6416 15.9954H76.2207V40.6145H69.6416L69.1934 37.0344C67.761 39.2722 65.0755 40.9727 61.9873 40.9729C55.6312 40.9729 50.5275 35.2437 50.5273 28.261C50.5273 21.2781 55.6311 15.5481 61.9873 15.5481ZM206.021 15.5481C209.109 15.5481 211.795 17.2496 213.228 19.5325L213.675 15.9954H220.255V40.6145H213.675L213.228 37.0344C211.795 39.2723 209.109 40.9729 206.021 40.9729C199.665 40.9727 194.562 35.2435 194.562 28.261C194.562 21.2783 199.664 15.5483 206.021 15.5481ZM94.4512 15.5481C100.091 15.5481 103.986 19.2633 103.986 28.0364V40.6145H96.7344V28.0364C96.7342 24.2769 94.6755 22.6655 92.4824 22.6653C90.2892 22.6653 88.2296 24.2319 88.2295 28.0364V40.6145H80.9785V15.9954H87.5586L88.0059 19.219C89.3487 17.1153 91.5866 15.5482 94.4512 15.5481ZM167.044 40.6145H159.793V15.9954H167.044V40.6145ZM178.663 24.053L186.094 15.9954H194.33L185.378 26.1565L195.091 40.6145H186.721L180.812 31.6174L178.663 33.8108V40.6145H171.77V5.70044H178.663V24.053ZM9.56641 14.0256L8.20508 24.9182L8.09375 25.8411C7.86494 27.556 7.56555 29.2612 7.19629 30.9514L6.79688 32.7844L14.4629 25.1184C14.1972 24.127 14.2655 23.0755 14.6582 22.1272C15.051 21.1789 15.7459 20.3865 16.6348 19.8733C17.5237 19.36 18.5575 19.1544 19.5752 19.2883C20.5928 19.4223 21.5379 19.8888 22.2637 20.6145C22.9894 21.3403 23.4549 22.2854 23.5889 23.303C23.7228 24.3207 23.5172 25.3545 23.0039 26.2434C22.4906 27.1321 21.6982 27.8263 20.75 28.219C19.8017 28.6117 18.7502 28.681 17.7588 28.4153L10.0938 36.0803L11.0078 35.8782L12.835 35.4934C13.9741 35.2608 15.1196 35.0584 16.2695 34.887L28.8516 33.3108L34.3652 19.5276L23.3496 8.51196L9.56641 14.0256ZM63.374 22.6653C60.2856 22.6655 57.8691 25.1725 57.8691 28.261C57.8694 31.3492 60.2858 33.8106 63.374 33.8108C66.5072 33.8108 68.9695 31.3494 68.9697 28.261C68.9697 25.1724 66.5074 22.6653 63.374 22.6653ZM207.408 22.6653C204.32 22.6655 201.902 25.1725 201.902 28.261C201.903 31.3493 204.32 33.8106 207.408 33.8108C210.541 33.8108 213.004 31.3494 213.004 28.261C213.004 25.1724 210.542 22.6653 207.408 22.6653ZM119.935 23.0237C116.936 23.0238 114.609 25.3957 114.608 28.3049C114.608 31.3039 116.936 33.6769 119.935 33.677C122.934 33.677 125.262 31.304 125.262 28.3049C125.261 25.3956 122.933 23.0237 119.935 23.0237ZM30.3604 0.153564C30.9269 0.117509 31.4877 0.289304 31.9365 0.636963L32.1553 0.833252L42.0449 10.7229C42.4674 11.1415 42.7142 11.7057 42.7344 12.3C42.7545 12.8944 42.5465 13.474 42.1533 13.9202C41.7601 14.3664 41.2113 14.6456 40.6191 14.7004C40.027 14.7552 39.4362 14.5815 38.9678 14.2151L38.748 14.0188L28.8584 4.12915C28.4215 3.69199 28.1758 3.09875 28.1758 2.48071C28.1759 1.86286 28.4217 1.2703 28.8584 0.833252C29.2595 0.431529 29.7938 0.189644 30.3604 0.153564ZM163.418 6.19263C165.611 6.19263 167.447 8.02794 167.447 10.2659C167.447 12.4592 165.611 14.2952 163.418 14.2952C161.225 14.295 159.39 12.4591 159.39 10.2659C159.39 8.02805 161.225 6.19281 163.418 6.19263Z" fill="url(#paint0_linear_749_6117)"/>
<defs>
<linearGradient id="paint0_linear_749_6117" x1="255.444" y1="35.7145" x2="56.1128" y2="35.7145" gradientUnits="userSpaceOnUse">
<stop stop-color="#3F72E9"/>
<stop offset="1" stop-color="#234083"/>
</linearGradient>
</defs>
</svg>
