<svg width="24" height="24" viewBox="0 0 24 24" fill="none" xmlns="http://www.w3.org/2000/svg">
<path d="M22.875 18.75V12.75C22.875 12.4516 22.7564 12.1655 22.5455 11.9545C22.3345 11.7435 22.0483 11.625 21.75 11.625C21.4516 11.625 21.1654 11.7435 20.9545 11.9545C20.7435 12.1655 20.625 12.4516 20.625 12.75V16.0312L13.5459 8.95125C13.4414 8.84637 13.3172 8.76315 13.1804 8.70637C13.0437 8.64959 12.8971 8.62036 12.749 8.62036C12.601 8.62036 12.4543 8.64959 12.3176 8.70637C12.1809 8.76315 12.0567 8.84637 11.9521 8.95125L8.99996 11.9062L3.0459 5.95406C2.83455 5.74272 2.54791 5.62399 2.24902 5.62399C1.95014 5.62399 1.66349 5.74272 1.45215 5.95406C1.2408 6.16541 1.12207 6.45205 1.12207 6.75094C1.12207 7.04982 1.2408 7.33647 1.45215 7.54781L8.20215 14.2978C8.30666 14.4027 8.43085 14.4859 8.5676 14.5427C8.70435 14.5995 8.85096 14.6287 8.99902 14.6287C9.14709 14.6287 9.2937 14.5995 9.43044 14.5427C9.56719 14.4859 9.69138 14.4027 9.7959 14.2978L12.75 11.3438L19.0312 17.625H15.75C15.4516 17.625 15.1654 17.7435 14.9545 17.9545C14.7435 18.1655 14.625 18.4516 14.625 18.75C14.625 19.0484 14.7435 19.3345 14.9545 19.5455C15.1654 19.7565 15.4516 19.875 15.75 19.875H21.75C22.0483 19.875 22.3345 19.7565 22.5455 19.5455C22.7564 19.3345 22.875 19.0484 22.875 18.75Z" fill="#FF3D00"/>
</svg>
