<?xml version="1.0" encoding="UTF-8"?>
<svg id="Layer_2" data-name="Layer 2" xmlns="http://www.w3.org/2000/svg" viewBox="0 0 300 300">
  <defs>
    <style>
      .cls-1 {
        fill: #84c62c;
      }

      .cls-1, .cls-2 {
        stroke-width: 0px;
      }

      .cls-2 {
        fill: #fff;
      }
    </style>
  </defs>
  <g id="Layer_1-2" data-name="Layer 1">
    <g>
      <rect class="cls-2" width="300" height="300"/>
      <g>
        <path class="cls-1" d="M153.15,137.04c-1.12-5.28-2.31-14.65.68-25.53,1.21-4.41,4.74-16.59,16-25.53,2.86-2.27,5.54-3.79,7.49-4.77,1.04,3.21,2.44,8.91,1.7,16-.34,3.3-1.06,10.3-5.79,16.68-4.01,5.41-7.03,5.15-12.43,11.06-4.08,4.47-6.38,9.02-7.66,12.09Z"/>
        <path class="cls-1" d="M156.9,160.01c6.26-6.64,12.14-9.59,16.34-11.06,4.48-1.57,7.33-1.55,14.98-4.43,3.47-1.3,6.49-2.46,10.04-4.6,5.22-3.14,8.82-6.76,11.06-9.36-4.96-7.97-15.29-24.2-15.49-24.34-2.33,1.44-5.52,3.49-9.19,6.13-4.8,3.44-7.92,5.68-11.23,9.02-.9.9-5.32,5.42-9.19,12.43-5.65,10.23-7.01,20.11-7.32,26.21Z"/>
        <path class="cls-1" d="M216.22,140.52c10.55,17.7,21.11,35.4,31.66,53.11,1.54,3.45,4.19,10.61,3.57,19.91-.21,3.17-.79,10.86-5.62,18.38-8.48,13.23-23.61,15.88-26.55,16.34-9.27.24-28.86-.12-29.32-.21-3.01-.59-6.76-4.36-8.96-6.46-3.2-3.05-6.21-6.31-8.96-9.77-6.67-8.38-11.89-18.02-14.32-28.5-.08-.34-.16-.69-.23-1.03-1.21-5.68-2.89-14.07.77-23.49,2.74-7.06,7.81-13.37,14.41-17.14s14.77-3.27,22.1-5.83c5.79-2.03,13.53-6.12,21.45-15.32Z"/>
        <path class="cls-1" d="M115.62,90.74c4.88,1.36,8.54,3.4,11.23,5.36,19.47,14.19,16.2,44.49,15.83,47.49-3.6-6.02-7.4-9.99-10.21-12.51-5.63-5.04-9.65-6.35-14.04-12.51-1.16-1.63-3.13-4.44-4.34-8.43-2.51-8.29.04-15.87,1.53-19.4Z"/>
        <path class="cls-1" d="M99.79,115.25c-5.28,8.26-10.55,16.51-15.83,24.77,4.41,3.12,10.28,6.68,17.62,9.7,8.68,3.57,13.51,2.51,21.7,5.87,7.27,2.99,12.47,7.14,15.7,10.15.11-3.21-.11-8.09-1.98-13.6-1.67-4.91-3.89-8.09-6.45-11.68-2.24-3.15-8.36-11.2-19.11-18.57-4.43-3.04-8.49-5.17-11.66-6.64Z"/>
        <path class="cls-1" d="M76.73,151.16c9.43,8.96,16.28,11.43,20.94,11.91,9.62.99,22.17,1.58,30.3,7.49,10.63,7.73,10.75,20.64,8.93,32.32-1.1,7.04-2.89,13.97-5.01,20.76-1.28,4.12-2.71,8.19-4.24,12.22-.52,1.38-4.06,12.44-5.13,12.48-12.71.45-24.58,1.13-38.43-.01-13.16-1.09-27.6-10.11-32.61-21.57-4.67-10.69-3.51-23.2.61-34.11,3.03-8.04,7.56-15.41,12.39-22.48,1.11-1.62,12.7-18.58,12.26-19.01Z"/>
        <path class="cls-1" d="M120.74,83.14c.07.19.21.35.35.5,2.35,2.53,6.26,3.55,9,5.72s5.3,4.77,7.45,7.6c4.31,5.66,7.23,12.39,8.27,19.43.95-17.27,11.52-33.69,26.84-41.72,1.29-.68-8.17-14.02-9.12-15.15-4.88-5.81-11.95-10.71-19.62-7.44-6.43,2.74-10.34,9.45-13.55,15.31-1.71,3.12-3.54,6.16-5.5,9.13-1.23,1.86-2.52,3.67-3.81,5.49-.19.27-.4.58-.37.91,0,.08.03.15.05.22Z"/>
      </g>
    </g>
  </g>
</svg>