<svg width="150" height="48" viewBox="0 0 150 48" fill="none" xmlns="http://www.w3.org/2000/svg">
<path d="M58.6118 41.6944C54.9275 41.6944 51.9697 38.3733 51.9697 34.3257C51.9697 30.2782 54.9275 26.9571 58.6118 26.9571C60.4021 26.9571 61.9588 27.943 62.7891 29.2663L63.0486 27.2165H66.8626V41.4868H63.0486L62.7891 39.4111C61.9588 40.7084 60.4021 41.6944 58.6118 41.6944ZM56.2248 34.3257C56.2248 36.116 57.6259 37.543 59.4161 37.543C61.2324 37.543 62.6594 36.116 62.6594 34.3257C62.6594 32.5355 61.2324 31.0825 59.4161 31.0825C57.6259 31.0825 56.2248 32.5355 56.2248 34.3257ZM75.7951 47.5841C73.434 47.5841 70.9692 46.5203 69.594 44.7041L72.7335 42.2392C73.5378 43.0695 74.8092 43.5625 76.0546 43.5625C77.8967 43.5625 79.6611 42.4468 79.6611 40.0598V39.5409C78.8567 40.7603 77.3519 41.6944 75.6135 41.6944C71.9292 41.6944 68.9713 38.3733 68.9713 34.3257C68.9713 30.2782 71.9292 26.9571 75.6135 26.9571C77.4038 26.9571 78.9605 27.943 79.7908 29.2663L80.0503 27.2165H83.8643V39.2555C83.8643 44.7301 80.647 47.5841 75.7951 47.5841ZM73.2265 34.3257C73.2265 36.116 74.6276 37.543 76.4178 37.543C78.234 37.543 79.6611 36.116 79.6611 34.3257C79.6611 32.5355 78.234 31.0825 76.4178 31.0825C74.6276 31.0825 73.2265 32.5355 73.2265 34.3257ZM86.6217 41.4868V27.2165H90.4357L90.7471 29.1106C91.5255 27.8392 92.9525 27.1128 94.8206 27.1128C95.3136 27.1128 95.7806 27.1387 96.2217 27.2165L95.3655 31.2382C95.2098 31.2122 95.0801 31.2122 94.9503 31.2122C93.0563 31.2122 90.8249 31.9906 90.8249 35.7787V41.4868H86.6217ZM98.0997 41.4868V27.2165H102.303V41.4868H98.0997ZM97.8662 23.8955C97.8662 22.5982 98.93 21.5344 100.201 21.5344C101.473 21.5344 102.536 22.5982 102.536 23.8955C102.536 25.1668 101.473 26.2306 100.201 26.2306C98.93 26.2306 97.8662 25.1668 97.8662 23.8955ZM105.042 41.4868V21.249H109.246V41.4868H105.042ZM111.96 41.4868V27.2165H116.163V41.4868H111.96ZM111.726 23.8955C111.726 22.5982 112.79 21.5344 114.061 21.5344C115.332 21.5344 116.396 22.5982 116.396 23.8955C116.396 25.1668 115.332 26.2306 114.061 26.2306C112.79 26.2306 111.726 25.1668 111.726 23.8955ZM118.902 41.4868V27.2165H122.716L122.976 29.0847C123.754 27.8652 125.051 26.9571 126.712 26.9571C129.981 26.9571 132.238 29.1106 132.238 34.196V41.4868H128.035V34.196C128.035 32.0165 126.842 31.0825 125.57 31.0825C124.299 31.0825 123.105 31.9906 123.105 34.196V41.4868H118.902ZM134.789 41.4868V21.249H138.785V31.8868L143.092 27.2165H147.866L142.676 33.1063L148.307 41.4868H143.455L140.03 36.2717L138.785 37.543V41.4868H134.789Z" fill="#182605"/>
<path d="M22.636 18.5963C22.3938 17.4546 22.1365 15.4287 22.783 13.0763C23.0446 12.1227 23.8079 9.48923 26.2425 7.55625C26.8609 7.06544 27.4403 6.73679 27.8619 6.5249C28.0868 7.21896 28.3895 8.45139 28.2295 9.98436C28.156 10.6979 28.0003 12.2114 26.9776 13.5908C26.1106 14.7606 25.4576 14.7044 24.29 15.9822C23.4079 16.9487 22.9106 17.9325 22.6338 18.5963H22.636Z" fill="#84C62C"/>
<path d="M23.4473 23.5629C24.8008 22.1272 26.0721 21.4894 26.9802 21.1715C27.9489 20.8321 28.5651 20.8364 30.2192 20.2137C30.9694 19.9326 31.6224 19.6818 32.39 19.2191C33.5186 18.5402 34.297 17.7575 34.7813 17.1953C33.7089 15.4721 31.4754 11.9629 31.4321 11.9326C30.9283 12.244 30.2386 12.6872 29.4451 13.258C28.4073 14.0018 27.7327 14.4861 27.017 15.2083C26.8224 15.4029 25.8667 16.3802 25.03 17.8959C23.8083 20.1078 23.5143 22.244 23.4473 23.5629Z" fill="#84C62C"/>
<path d="M36.2731 19.3488C38.5542 23.1759 40.8374 27.0029 43.1185 30.8321C43.4515 31.578 44.0244 33.1261 43.8904 35.1369C43.845 35.8224 43.7196 37.4851 42.6753 39.111C40.8417 41.9715 37.5704 42.5445 36.9347 42.644C34.9304 42.6959 30.6947 42.618 30.5953 42.5986C29.9444 42.471 29.1336 41.6559 28.658 41.2018C27.9661 40.5424 27.3153 39.8375 26.7207 39.0894C25.2785 37.2775 24.1499 35.1932 23.6244 32.9272C23.6071 32.8537 23.5899 32.778 23.5747 32.7045C23.3131 31.4764 22.9498 29.6624 23.7412 27.6256C24.3336 26.0991 25.4299 24.7348 26.8569 23.9197C28.2839 23.1045 30.0504 23.2126 31.6353 22.6591C32.8871 22.2202 34.5607 21.3359 36.2731 19.3467V19.3488Z" fill="#84C62C"/>
<path d="M14.5215 8.58594C15.5767 8.87999 16.368 9.32107 16.9496 9.74486C21.1594 12.813 20.4523 19.3643 20.3723 20.013C19.594 18.7113 18.7723 17.853 18.1648 17.3081C16.9475 16.2184 16.0783 15.9351 15.1291 14.6032C14.8783 14.2508 14.4523 13.6432 14.1907 12.7805C13.648 10.9881 14.1994 9.34918 14.5215 8.58594Z" fill="#84C62C"/>
<path d="M11.0995 13.8853C9.95784 15.6712 8.81838 17.455 7.67676 19.2409C8.63027 19.9155 9.89946 20.6853 11.4865 21.3382C13.3632 22.1101 14.4076 21.8809 16.1784 22.6074C17.7503 23.2539 18.8746 24.1512 19.573 24.802C19.5968 24.108 19.5492 23.0528 19.1449 21.8615C18.7838 20.7998 18.3038 20.1123 17.7503 19.3361C17.2659 18.655 15.9427 16.9144 13.6184 15.3209C12.6605 14.6636 11.7827 14.2031 11.0973 13.8853H11.0995Z" fill="#84C62C"/>
<path d="M6.11336 21.6494C8.15228 23.5867 9.63336 24.1208 10.6409 24.2245C12.7209 24.4386 15.4344 24.5662 17.1923 25.844C19.4907 27.5154 19.5166 30.3067 19.1231 32.8321C18.8853 34.3543 18.4982 35.8527 18.0398 37.3208C17.7631 38.2116 17.4539 39.0916 17.1231 39.9629C17.0107 40.2613 16.2453 42.6527 16.0139 42.6613C13.2658 42.7586 10.6993 42.9056 7.70471 42.6591C4.85931 42.4235 1.73715 40.4732 0.653904 37.9954C-0.355826 35.684 -0.105015 32.9791 0.785796 30.6202C1.44093 28.8818 2.42039 27.2883 3.46472 25.7597C3.70472 25.4094 6.21066 21.7424 6.11553 21.6494H6.11336Z" fill="#84C62C"/>
<path d="M15.6288 6.94255C15.644 6.98363 15.6742 7.01823 15.7045 7.05066C16.2126 7.59769 17.058 7.81823 17.6505 8.28742C18.2429 8.75661 18.7964 9.31877 19.2613 9.93066C20.1932 11.1544 20.8245 12.6096 21.0494 14.1317C21.2548 10.3977 23.5402 6.84742 26.8526 5.1112C27.1315 4.96417 25.0861 2.07985 24.8807 1.83552C23.8256 0.579308 22.2969 -0.480151 20.6386 0.226876C19.2483 0.819308 18.4029 2.27012 17.7088 3.53715C17.3391 4.21174 16.9434 4.86904 16.5196 5.5112C16.2537 5.91336 15.9748 6.30471 15.6959 6.69823C15.6548 6.75661 15.6094 6.82363 15.6159 6.89498C15.6159 6.91228 15.6223 6.92742 15.6267 6.94255H15.6288Z" fill="#84C62C"/>
</svg>
